<svg xmlns="http://www.w3.org/2000/svg" viewBox="0 0 106 155" fill="none">
  <!-- spine -->
  <rect x="0"  y="0"   width="18" height="18" rx="3" fill="#c3f400"/>
  <rect x="0"  y="22"  width="18" height="18" rx="3" fill="#c3f400"/>
  <rect x="0"  y="44"  width="18" height="18" rx="3" fill="#c3f400"/>
  <rect x="0"  y="66"  width="18" height="18" rx="3" fill="#c3f400"/>
  <rect x="0"  y="88"  width="18" height="18" rx="3" fill="#c3f400"/>
  <rect x="0"  y="110" width="18" height="18" rx="3" fill="#c3f400"/>
  <rect x="0"  y="132" width="18" height="18" rx="3" fill="#c3f400"/>
  <!-- top arm -->
  <rect x="22" y="0"   width="18" height="18" rx="3" fill="#c3f400"/>
  <rect x="44" y="0"   width="18" height="18" rx="3" fill="#c3f400"/>
  <rect x="66" y="0"   width="18" height="18" rx="3" fill="#c3f400"/>
  <!-- upper bowl -->
  <rect x="22" y="22"  width="18" height="18" rx="3" fill="#c3f400"/>
  <rect x="44" y="22"  width="18" height="18" rx="3" fill="#c3f400"/>
  <rect x="66" y="22"  width="18" height="18" rx="3" fill="#c3f400"/>
  <rect x="88" y="22"  width="18" height="18" rx="3" fill="#c3f400"/>
  <rect x="66" y="44"  width="18" height="18" rx="3" fill="#c3f400"/>
  <rect x="88" y="44"  width="18" height="18" rx="3" fill="#c3f400"/>
  <!-- close arm -->
  <rect x="22" y="66"  width="18" height="18" rx="3" fill="#c3f400"/>
  <rect x="44" y="66"  width="18" height="18" rx="3" fill="#c3f400"/>
  <rect x="66" y="66"  width="18" height="18" rx="3" fill="#c3f400"/>
  <!-- ghost trail -->
  <rect x="22" y="88"  width="18" height="18" rx="3" fill="#c3f400" opacity="0.22"/>
  <rect x="44" y="88"  width="18" height="18" rx="3" fill="#c3f400" opacity="0.11"/>
  <rect x="22" y="110" width="18" height="18" rx="3" fill="#c3f400" opacity="0.08"/>
</svg>